<?xml version="1.0" encoding="UTF-8"?>
<!DOCTYPE svg PUBLIC "-//W3C//DTD SVG 1.1//EN" "http://www.w3.org/Graphics/SVG/1.1/DTD/svg11.dtd">
<svg xmlns="http://www.w3.org/2000/svg" version="1.1" width="460px" height="460px" style="shape-rendering:geometricPrecision; text-rendering:geometricPrecision; image-rendering:optimizeQuality; fill-rule:evenodd; clip-rule:evenodd" xmlns:xlink="http://www.w3.org/1999/xlink">
<g><path style="opacity:0.997" fill="#1b1b1b" d="M 264.5,58.5 C 267.704,65.2777 271.204,71.9444 275,78.5C 280.63,92.7437 286.63,106.744 293,120.5C 303.975,128.144 313.642,137.144 322,147.5C 328.208,160.915 335.208,173.915 343,186.5C 346.083,190.375 350.083,192.375 355,192.5C 358.397,205.026 362.397,217.359 367,229.5C 367.759,232.626 368.259,235.793 368.5,239C 367.028,250.057 364.528,260.89 361,271.5C 352.465,276.471 343.298,279.304 333.5,280C 331.383,278.269 329.883,276.102 329,273.5C 315.427,283.117 300.427,289.451 284,292.5C 282.373,292.375 280.873,291.875 279.5,291C 278.204,288.239 277.037,285.405 276,282.5C 272.889,286.387 270.556,290.72 269,295.5C 268.667,302.5 268.333,309.5 268,316.5C 264.38,321.789 260.38,326.789 256,331.5C 252.8,355.065 250.633,378.732 249.5,402.5C 243.372,416.09 236.705,429.423 229.5,442.5C 222.295,429.423 215.628,416.09 209.5,402.5C 208.155,379.799 206.321,357.132 204,334.5C 200.798,328.623 196.798,323.289 192,318.5C 190.769,310.911 190.103,303.244 190,295.5C 187.368,290.186 184.701,284.853 182,279.5C 182.242,287.075 178.742,291.409 171.5,292.5C 156.36,289.553 142.36,283.887 129.5,275.5C 127.636,278.74 124.803,280.406 121,280.5C 112.734,278.579 104.901,275.579 97.5,271.5C 91.1541,256.593 89.6541,241.26 93,225.5C 97.0732,214.614 100.74,203.614 104,192.5C 108.148,191.926 111.815,190.26 115,187.5C 118.333,182.167 121.667,176.833 125,171.5C 132.713,149.78 146.38,132.78 166,120.5C 171.155,108.016 176.489,95.6826 182,83.5C 186.512,75.1397 191.012,66.8063 195.5,58.5C 201.188,48.4539 207.854,39.1205 215.5,30.5C 218.354,27.8116 221.354,25.3116 224.5,23C 227.833,22.3333 231.167,22.3333 234.5,23C 238.61,25.8086 242.443,28.9753 246,32.5C 252.422,41.02 258.588,49.6867 264.5,58.5 Z"/></g>
<g><path style="opacity:1" fill="#909090" d="M 286.5,130.5 C 286.631,131.239 286.464,131.906 286,132.5C 276.226,107.132 264.559,82.7982 251,59.5C 247.599,56.3647 244.933,52.698 243,48.5C 238.946,43.943 234.446,39.943 229.5,36.5C 224.554,39.943 220.054,43.943 216,48.5C 206.904,61.6192 198.571,75.2858 191,89.5C 190.536,88.9056 190.369,88.2389 190.5,87.5C 193.087,81.329 195.92,75.329 199,69.5C 204.752,60.328 210.752,51.328 217,42.5C 220.737,39.886 223.903,36.7193 226.5,33C 228.044,31.8129 229.711,31.4795 231.5,32C 246.771,47.3869 258.938,64.8869 268,84.5C 274.472,99.7362 280.639,115.07 286.5,130.5 Z"/></g>
<g><path style="opacity:1" fill="#747474" d="M 286.5,130.5 C 289.755,142.544 292.255,154.877 294,167.5C 295.183,177.408 294.183,187.075 291,196.5C 290.028,198.305 288.861,199.972 287.5,201.5C 277.995,201.053 270.162,204.386 264,211.5C 255.06,223.571 247.727,236.571 242,250.5C 237.431,252.575 233.264,255.242 229.5,258.5C 225.341,255.253 221.008,252.253 216.5,249.5C 210.985,236.461 204.151,224.127 196,212.5C 189.744,204.718 181.577,201.052 171.5,201.5C 168.625,198.386 166.791,194.719 166,190.5C 164.558,182.548 164.225,174.548 165,166.5C 166.715,154.362 169.049,142.362 172,130.5C 177.707,115.849 183.874,101.516 190.5,87.5C 190.369,88.2389 190.536,88.9056 191,89.5C 198.571,75.2858 206.904,61.6192 216,48.5C 220.054,43.943 224.554,39.943 229.5,36.5C 234.446,39.943 238.946,43.943 243,48.5C 244.933,52.698 247.599,56.3647 251,59.5C 264.559,82.7982 276.226,107.132 286,132.5C 286.464,131.906 286.631,131.239 286.5,130.5 Z"/></g>
<g><path style="opacity:1" fill="#1b1b1b" d="M 243.5,216.5 C 244.446,226.114 241.78,234.614 235.5,242C 231.906,243.741 228.239,243.908 224.5,242.5C 221.81,238.435 219.143,234.435 216.5,230.5C 215.963,173.784 217.796,117.117 222,60.5C 223.125,56.447 224.625,52.6136 226.5,49C 229.347,48.0561 231.847,48.5561 234,50.5C 235.538,55.448 236.872,60.448 238,65.5C 240.741,115.803 242.574,166.136 243.5,216.5 Z"/></g>
<g><path style="opacity:0.994" fill="#b1e9f0" d="M 195.5,58.5 C 191.012,66.8063 186.512,75.1397 182,83.5C 176.489,95.6826 171.155,108.016 166,120.5C 146.38,132.78 132.713,149.78 125,171.5C 121.667,176.833 118.333,182.167 115,187.5C 111.815,190.26 108.148,191.926 104,192.5C 100.74,203.614 97.0732,214.614 93,225.5C 89.6541,241.26 91.1541,256.593 97.5,271.5C 104.901,275.579 112.734,278.579 121,280.5C 124.803,280.406 127.636,278.74 129.5,275.5C 142.36,283.887 156.36,289.553 171.5,292.5C 178.742,291.409 182.242,287.075 182,279.5C 184.701,284.853 187.368,290.186 190,295.5C 190.103,303.244 190.769,310.911 192,318.5C 196.798,323.289 200.798,328.623 204,334.5C 206.321,357.132 208.155,379.799 209.5,402.5C 193.361,400.715 177.694,396.882 162.5,391C 118.978,371.478 87.4776,339.978 68,296.5C 65.0591,287.179 62.2258,277.846 59.5,268.5C 63.7314,266.412 64.3981,263.579 61.5,260C 60.2068,259.51 58.8734,259.343 57.5,259.5C 53.1463,229.157 55.8129,199.49 65.5,170.5C 67.4611,168.037 69.6278,165.703 72,163.5C 73.6163,160.176 73.783,156.843 72.5,153.5C 84.7224,128.278 102.056,107.278 124.5,90.5C 127.04,91.7465 129.706,92.7465 132.5,93.5C 128.598,100.06 130.265,103.226 137.5,103C 139.377,100.874 140.377,98.374 140.5,95.5C 142.905,95.8664 145.238,96.5331 147.5,97.5C 153.054,95.687 153.721,92.8536 149.5,89C 147.899,88.7266 146.399,88.2266 145,87.5C 144.501,83.8484 144.335,80.1817 144.5,76.5C 160.503,68.0165 177.503,62.0165 195.5,58.5 Z"/></g>
<g><path style="opacity:0.994" fill="#b1e9f0" d="M 264.5,58.5 C 305.992,67.9767 340.158,88.9767 367,121.5C 406.008,175.19 414.008,233.524 391,296.5C 371.478,340.022 339.978,371.522 296.5,391C 281.306,396.882 265.639,400.715 249.5,402.5C 250.633,378.732 252.8,355.065 256,331.5C 260.38,326.789 264.38,321.789 268,316.5C 268.333,309.5 268.667,302.5 269,295.5C 270.556,290.72 272.889,286.387 276,282.5C 277.037,285.405 278.204,288.239 279.5,291C 280.873,291.875 282.373,292.375 284,292.5C 300.427,289.451 315.427,283.117 329,273.5C 329.883,276.102 331.383,278.269 333.5,280C 343.298,279.304 352.465,276.471 361,271.5C 364.528,260.89 367.028,250.057 368.5,239C 368.259,235.793 367.759,232.626 367,229.5C 362.397,217.359 358.397,205.026 355,192.5C 350.083,192.375 346.083,190.375 343,186.5C 335.208,173.915 328.208,160.915 322,147.5C 313.642,137.144 303.975,128.144 293,120.5C 286.63,106.744 280.63,92.7437 275,78.5C 271.204,71.9444 267.704,65.2777 264.5,58.5 Z"/></g>
<g><path style="opacity:0.98" fill="#fdd552" d="M 144.5,76.5 C 144.335,80.1817 144.501,83.8484 145,87.5C 146.399,88.2266 147.899,88.7266 149.5,89C 153.721,92.8536 153.054,95.687 147.5,97.5C 145.238,96.5331 142.905,95.8664 140.5,95.5C 140.377,98.374 139.377,100.874 137.5,103C 130.265,103.226 128.598,100.06 132.5,93.5C 129.706,92.7465 127.04,91.7465 124.5,90.5C 122.454,86.4899 123.621,83.8232 128,82.5C 130.434,83.3223 132.934,83.6556 135.5,83.5C 134.9,76.0761 137.9,73.7427 144.5,76.5 Z"/></g>
<g><path style="opacity:1" fill="#95a3ad" d="M 324.5,90.5 C 336.382,90.213 341.216,95.8796 339,107.5C 332.075,116.365 324.742,116.698 317,108.5C 313.749,100.011 316.249,94.0108 324.5,90.5 Z"/></g>
<g><path style="opacity:1" fill="#afe4eb" d="M 326.5,99.5 C 330.35,99.7007 331.35,101.534 329.5,105C 326.763,106.08 325.096,105.246 324.5,102.5C 324.942,101.261 325.609,100.261 326.5,99.5 Z"/></g>
<g><path style="opacity:1" fill="#424242" d="M 228.5,100.5 C 229.818,103.258 230.485,106.424 230.5,110C 231.986,136.157 232.819,162.323 233,188.5C 231.833,190.167 230.667,191.833 229.5,193.5C 226.002,189.013 224.669,183.846 225.5,178C 226.736,152.173 227.736,126.34 228.5,100.5 Z"/></g>
<g><path style="opacity:0.941" fill="#fad14d" d="M 398.5,125.5 C 405.952,125.612 407.952,128.946 404.5,135.5C 406.904,136.35 409.237,137.35 411.5,138.5C 413.443,147.376 410.276,149.71 402,145.5C 401.265,147.871 400.432,150.205 399.5,152.5C 396.144,155.456 393.311,155.123 391,151.5C 390.218,148.743 390.718,146.243 392.5,144C 390.365,142.619 388.032,141.619 385.5,141C 382.701,137.661 383.034,134.661 386.5,132C 389.187,131.463 391.687,131.963 394,133.5C 394.916,130.486 396.416,127.819 398.5,125.5 Z"/></g>
<g><path style="opacity:1" fill="#444444" d="M 159.5,142.5 C 155.706,158.042 154.706,173.709 156.5,189.5C 156.129,199.532 159.462,208.365 166.5,216C 167.749,216.74 168.749,216.573 169.5,215.5C 170.245,218.39 170.912,221.39 171.5,224.5C 170.482,227.377 170.649,230.377 172,233.5C 174.229,239.623 176.729,245.623 179.5,251.5C 196.141,259.82 212.807,268.154 229.5,276.5C 246.364,267.902 263.364,259.568 280.5,251.5C 283.46,243.454 286.126,235.287 288.5,227C 288.472,225.93 288.139,225.097 287.5,224.5C 288.11,223.609 288.443,222.609 288.5,221.5C 289.163,219.958 289.83,218.291 290.5,216.5C 292.753,215.747 294.587,214.414 296,212.5C 299.678,206.136 302.178,199.303 303.5,192C 303.472,190.93 303.139,190.097 302.5,189.5C 304.299,173.679 303.299,158.012 299.5,142.5C 304.146,146.479 308.479,150.812 312.5,155.5C 319.459,169.413 326.959,183.08 335,196.5C 338.421,200.753 342.587,204.086 347.5,206.5C 348.429,205.311 348.762,203.978 348.5,202.5C 352.837,214.69 356.504,227.19 359.5,240C 358.199,248.702 356.033,257.202 353,265.5C 348.725,267.638 344.225,269.305 339.5,270.5C 338.667,248.174 338.167,225.841 338,203.5C 333.367,197.865 328.367,192.532 323,187.5C 321.39,183.557 318.723,180.557 315,178.5C 314.333,177.167 313.667,175.833 313,174.5C 307.852,185.632 303.685,197.132 300.5,209C 301.716,217.58 303.383,226.08 305.5,234.5C 301.093,242.405 296.093,249.905 290.5,257C 270.644,265.215 250.978,273.882 231.5,283C 230.167,283.667 228.833,283.667 227.5,283C 208.058,273.885 188.392,265.219 168.5,257C 167.667,256.167 166.833,255.333 166,254.5C 161.978,248.485 157.978,242.485 154,236.5C 155.488,227.57 156.988,218.57 158.5,209.5C 154.917,197.659 150.75,185.992 146,174.5C 140.558,181.063 134.891,187.396 129,193.5C 127.109,197.13 124.442,200.13 121,202.5C 120.667,225.5 120.333,248.5 120,271.5C 115.047,269.505 110.047,267.505 105,265.5C 102.213,258.064 100.379,250.398 99.5,242.5C 103.259,230.556 107.259,218.556 111.5,206.5C 116.413,204.086 120.579,200.753 124,196.5C 131.761,183.861 138.761,170.861 145,157.5C 149.364,151.97 154.198,146.97 159.5,142.5 Z"/></g>
<g><path style="opacity:0.946" fill="#fdd450" d="M 72.5,153.5 C 73.783,156.843 73.6163,160.176 72,163.5C 69.6278,165.703 67.4611,168.037 65.5,170.5C 58.4179,171.875 52.9179,169.542 49,163.5C 47.1667,150 53,144.167 66.5,146C 69.1177,148.106 71.1177,150.606 72.5,153.5 Z M 58.5,155.5 C 62.1378,154.737 63.6378,156.07 63,159.5C 59.3307,161.009 57.8307,159.676 58.5,155.5 Z"/></g>
<g><path style="opacity:1" fill="#6c6c6c" d="M 159.5,142.5 C 154.198,146.97 149.364,151.97 145,157.5C 138.761,170.861 131.761,183.861 124,196.5C 120.579,200.753 116.413,204.086 111.5,206.5C 107.259,218.556 103.259,230.556 99.5,242.5C 99.4847,238.44 99.9847,234.44 101,230.5C 104.732,220.637 108.066,210.637 111,200.5C 113.022,199.214 115.189,198.214 117.5,197.5C 119.845,194.656 122.345,191.99 125,189.5C 132.374,175.316 140.041,161.316 148,147.5C 151.981,143.188 156.314,139.188 161,135.5C 161.275,138.058 160.775,140.392 159.5,142.5 Z"/></g>
<g><path style="opacity:1" fill="#6d6d6d" d="M 348.5,202.5 C 348.762,203.978 348.429,205.311 347.5,206.5C 342.587,204.086 338.421,200.753 335,196.5C 326.959,183.08 319.459,169.413 312.5,155.5C 308.479,150.812 304.146,146.479 299.5,142.5C 298.358,139.93 297.524,137.264 297,134.5C 307.105,142.348 315.105,152.015 321,163.5C 324.209,172.25 328.209,180.584 333,188.5C 336.016,191.349 338.85,194.349 341.5,197.5C 343.22,198.934 345.22,199.767 347.5,200C 348.252,200.671 348.586,201.504 348.5,202.5 Z"/></g>
<g><path style="opacity:1" fill="#252525" d="M 140.5,194.5 C 141.931,195.903 143.098,197.569 144,199.5C 144.592,203.276 145.592,206.943 147,210.5C 148.746,218.863 145.579,224.03 137.5,226C 135.295,228.54 132.795,230.707 130,232.5C 129.333,224.167 129.333,215.833 130,207.5C 133.737,203.273 137.237,198.94 140.5,194.5 Z"/></g>
<g><path style="opacity:1" fill="#252525" d="M 316.5,195.5 C 317.239,195.369 317.906,195.536 318.5,196C 321.631,200.133 325.131,203.966 329,207.5C 329.967,216.33 329.633,224.997 328,233.5C 324.033,229.526 319.533,226.359 314.5,224C 312.811,220.735 311.811,217.235 311.5,213.5C 313.176,207.424 314.843,201.424 316.5,195.5 Z"/></g>
<g><path style="opacity:1" fill="#e8c23c" d="M 224.5,203.5 C 227.505,204.724 230.505,204.724 233.5,203.5C 234.664,210.476 234.831,217.476 234,224.5C 230.459,236.373 227.459,236.04 225,223.5C 224.5,216.842 224.334,210.175 224.5,203.5 Z"/></g>
<g><path style="opacity:1" fill="#656565" d="M 156.5,189.5 C 157.53,198.678 161.697,206.011 169,211.5C 169.49,212.793 169.657,214.127 169.5,215.5C 168.749,216.573 167.749,216.74 166.5,216C 159.462,208.365 156.129,199.532 156.5,189.5 Z"/></g>
<g><path style="opacity:1" fill="#646464" d="M 302.5,189.5 C 303.139,190.097 303.472,190.93 303.5,192C 302.178,199.303 299.678,206.136 296,212.5C 294.587,214.414 292.753,215.747 290.5,216.5C 289.83,218.291 289.163,219.958 288.5,221.5C 287.6,214.7 290.1,209.7 296,206.5C 299.643,201.407 301.809,195.74 302.5,189.5 Z"/></g>
<g><path style="opacity:1" fill="#f2f2f2" d="M 186.5,212.5 C 191.136,216.304 195.303,220.638 199,225.5C 201.512,231.189 204.012,236.856 206.5,242.5C 203.941,242.61 201.608,241.944 199.5,240.5C 197.962,236.46 195.462,233.126 192,230.5C 189.215,224.799 187.382,218.799 186.5,212.5 Z"/></g>
<g><path style="opacity:1" fill="#f3f3f3" d="M 271.5,212.5 C 272.097,212.735 272.43,213.235 272.5,214C 271.474,219.367 269.974,224.534 268,229.5C 264.624,232.714 261.79,236.381 259.5,240.5C 257.303,242.306 254.97,242.639 252.5,241.5C 255.861,236.112 258.694,230.446 261,224.5C 264.336,220.332 267.836,216.332 271.5,212.5 Z"/></g>
<g><path style="opacity:1" fill="#575757" d="M 243.5,216.5 C 245.614,228.506 242.28,239.006 233.5,248C 230.571,248.777 227.737,248.61 225,247.5C 220.56,242.62 217.727,236.954 216.5,230.5C 219.143,234.435 221.81,238.435 224.5,242.5C 228.239,243.908 231.906,243.741 235.5,242C 241.78,234.614 244.446,226.114 243.5,216.5 Z"/></g>
<g><path style="opacity:1" fill="#b59834" d="M 143.5,238.5 C 139.244,240.888 135.41,243.888 132,247.5C 131.506,249.134 131.34,250.801 131.5,252.5C 130.362,249.696 130.195,246.696 131,243.5C 134.69,240.309 138.523,237.309 142.5,234.5C 143.429,235.689 143.762,237.022 143.5,238.5 Z"/></g>
<g><path style="opacity:1" fill="#ecc53d" d="M 315.5,235.5 C 319.124,237.951 322.624,240.617 326,243.5C 325.532,251.191 324.532,258.857 323,266.5C 317.429,270.398 311.595,273.898 305.5,277C 298.843,278.748 292.343,280.915 286,283.5C 283.687,279.002 283.187,274.336 284.5,269.5C 289.645,268.345 294.145,266.012 298,262.5C 302.584,255.574 307.584,248.908 313,242.5C 314.411,240.35 315.245,238.016 315.5,235.5 Z"/></g>
<g><path style="opacity:1" fill="#edc63d" d="M 143.5,238.5 C 143.402,242.25 144.569,245.583 147,248.5C 151.911,254.655 156.577,260.989 161,267.5C 164.319,269.445 167.819,271.112 171.5,272.5C 172.386,273.325 172.719,274.325 172.5,275.5C 172.5,278.167 172.5,280.833 172.5,283.5C 158.234,280.948 145.401,275.281 134,266.5C 133.271,261.794 132.438,257.127 131.5,252.5C 131.34,250.801 131.506,249.134 132,247.5C 135.41,243.888 139.244,240.888 143.5,238.5 Z"/></g>
<g><path style="opacity:1" fill="#6e6e6e" d="M 171.5,224.5 C 173.311,231.795 175.977,238.795 179.5,245.5C 195.573,254.87 212.239,263.203 229.5,270.5C 246.761,263.203 263.427,254.87 279.5,245.5C 283.012,238.811 285.679,231.811 287.5,224.5C 288.139,225.097 288.472,225.93 288.5,227C 286.126,235.287 283.46,243.454 280.5,251.5C 263.364,259.568 246.364,267.902 229.5,276.5C 212.807,268.154 196.141,259.82 179.5,251.5C 176.729,245.623 174.229,239.623 172,233.5C 170.649,230.377 170.482,227.377 171.5,224.5 Z"/></g>
<g><path style="opacity:0.96" fill="#93a0aa" d="M 57.5,259.5 C 58.8734,259.343 60.2068,259.51 61.5,260C 64.3981,263.579 63.7314,266.412 59.5,268.5C 58.2921,269.234 56.9587,269.567 55.5,269.5C 57.8716,275.087 56.205,278.753 50.5,280.5C 46.7909,278.758 45.1243,275.758 45.5,271.5C 43.2655,271.38 41.0989,271.713 39,272.5C 33.2316,270.492 32.3983,267.326 36.5,263C 38.4357,262.187 40.4357,261.687 42.5,261.5C 39.502,252.798 42.3353,249.798 51,252.5C 51.662,254.813 52.162,257.146 52.5,259.5C 54.1667,259.5 55.8333,259.5 57.5,259.5 Z"/></g>
<g><path style="opacity:1" fill="#b49733" d="M 143.5,238.5 C 149.472,246.813 155.472,255.146 161.5,263.5C 165.129,265.898 168.962,267.898 173,269.5C 173.789,271.712 173.622,273.712 172.5,275.5C 172.719,274.325 172.386,273.325 171.5,272.5C 167.819,271.112 164.319,269.445 161,267.5C 156.577,260.989 151.911,254.655 147,248.5C 144.569,245.583 143.402,242.25 143.5,238.5 Z"/></g>
<g><path style="opacity:0.941" fill="#fed44e" d="M 415.5,262.5 C 421.448,261.283 423.948,263.617 423,269.5C 421.779,270.774 420.946,272.274 420.5,274C 422.023,275.854 423.856,277.354 426,278.5C 427.65,283.068 426.15,285.734 421.5,286.5C 419.128,285.897 416.961,284.897 415,283.5C 413.18,284.604 411.68,286.104 410.5,288C 408.5,288.667 406.5,288.667 404.5,288C 401.898,284.389 402.231,280.889 405.5,277.5C 401.003,275.5 399.503,272.166 401,267.5C 404.487,264.851 407.82,265.185 411,268.5C 412.752,266.649 414.252,264.649 415.5,262.5 Z"/></g>
<g><path style="opacity:1" fill="#252525" d="M 191.5,277.5 C 203.871,283.406 216.538,288.739 229.5,293.5C 242.258,288.856 254.758,283.522 267,277.5C 264.985,283.21 262.652,288.877 260,294.5C 259.667,301.167 259.333,307.833 259,314.5C 255,319.167 251,323.833 247,328.5C 245.336,342.803 244.003,357.136 243,371.5C 240.167,367.167 237.333,362.833 234.5,358.5C 231.167,355.833 227.833,355.833 224.5,358.5C 221.912,362.676 219.079,366.676 216,370.5C 215.063,356.463 213.73,342.463 212,328.5C 208,323.833 204,319.167 200,314.5C 199.667,307.5 199.333,300.5 199,293.5C 196.272,288.272 193.772,282.939 191.5,277.5 Z"/></g>
<g><path style="opacity:1" fill="#95a3ad" d="M 140.5,315.5 C 152.297,313.803 157.797,318.803 157,330.5C 154.36,337.832 149.193,340.665 141.5,339C 131.255,331.491 130.922,323.657 140.5,315.5 Z"/></g>
<g><path style="opacity:1" fill="#95a4ae" d="M 323.5,322.5 C 329.554,321.856 331.72,324.523 330,330.5C 328.978,331.354 328.145,332.354 327.5,333.5C 329.192,335.359 330.692,337.359 332,339.5C 332.829,344.59 330.662,346.424 325.5,345C 324.333,343.833 323.167,342.667 322,341.5C 320.285,343.759 318.452,345.926 316.5,348C 312.833,348.67 310.833,347.17 310.5,343.5C 311.037,340.965 312.037,338.631 313.5,336.5C 311.879,334.376 310.046,332.376 308,330.5C 307.696,327.287 309.196,325.287 312.5,324.5C 314.81,325.795 317.143,327.129 319.5,328.5C 321.326,326.853 322.66,324.853 323.5,322.5 Z"/></g>
<g><path style="opacity:1" fill="#aee2ea" d="M 143.5,324.5 C 148.159,324.015 149.492,325.848 147.5,330C 142.728,330.81 141.395,328.977 143.5,324.5 Z"/></g>
<g><path style="opacity:1" fill="#b69934" d="M 233.5,376.5 C 231.855,375.521 230.521,374.188 229.5,372.5C 228.479,374.188 227.145,375.521 225.5,376.5C 225.853,373.121 227.187,370.121 229.5,367.5C 232.199,369.898 233.533,372.898 233.5,376.5 Z"/></g>
<g><path style="opacity:1" fill="#e8c13c" d="M 233.5,376.5 C 234.359,385.849 235.693,395.182 237.5,404.5C 235.773,410.375 233.107,415.708 229.5,420.5C 225.893,415.708 223.227,410.375 221.5,404.5C 223.307,395.182 224.641,385.849 225.5,376.5C 227.145,375.521 228.479,374.188 229.5,372.5C 230.521,374.188 231.855,375.521 233.5,376.5 Z"/></g>
</svg>
